<svg width="252" height="109" viewBox="0 0 252 109" fill="none" xmlns="http://www.w3.org/2000/svg">
<g clip-path="url(#clip0_2867_896)">
<path d="M1.84752 26.5213L45.5475 1.29075C46.5732 0.698516 47.8387 0.705503 48.8578 1.30904L67.2652 12.2095C69.4233 13.4875 69.4061 16.6167 67.2339 17.8708L8.35448 51.8648C6.16844 53.1269 6.16844 56.2822 8.35448 57.5443L45.5685 79.0298C46.583 79.6156 47.833 79.6156 48.8475 79.0299L65.3286 69.5145C67.5147 68.2524 67.5147 65.0971 65.3286 63.835L54.4329 57.5443C52.2469 56.2822 52.2469 53.1269 54.4329 51.8648L89.2894 31.7404C91.4754 30.4783 94.208 32.056 94.208 34.5802V79.0761C94.208 80.2476 93.583 81.3301 92.5685 81.9159L48.8475 107.158C47.833 107.744 46.583 107.744 45.5685 107.158L1.84754 81.9159C0.832995 81.3301 0.208008 80.2476 0.208008 79.0761V29.3611C0.208008 28.1896 0.832987 27.1071 1.84752 26.5213Z" fill="#94C294"/>
<path d="M155.593 45.9156C155.104 44.4186 154.459 43.0772 153.659 41.8915C152.873 40.691 151.932 39.6683 150.835 38.8234C149.753 37.9786 148.523 37.3339 147.145 36.8892C145.766 36.4446 144.255 36.2223 142.609 36.2223C139.912 36.2223 137.459 36.9189 135.25 38.3121C133.042 39.7053 131.286 41.7581 129.981 44.4705C128.677 47.1828 128.025 50.5103 128.025 54.4528C128.025 58.3953 128.684 61.7228 130.004 64.4351C131.323 67.1475 133.109 69.2003 135.362 70.5935C137.614 71.9867 140.149 72.6833 142.965 72.6833C145.574 72.6833 147.871 72.1275 149.857 71.0159C151.858 69.8895 153.414 68.3036 154.526 66.2582C155.652 64.198 156.216 61.7747 156.216 58.9882L157.905 59.3439H144.21V54.4528H161.551V59.3439C161.551 63.0938 160.751 66.3545 159.15 69.1262C157.564 71.8978 155.371 74.0469 152.569 75.5736C149.783 77.0854 146.582 77.8413 142.965 77.8413C138.934 77.8413 135.391 76.8927 132.338 74.9955C129.3 73.0984 126.928 70.4008 125.224 66.9029C123.534 63.405 122.689 59.255 122.689 54.4528C122.689 50.8512 123.171 47.6126 124.134 44.7373C125.112 41.8471 126.491 39.3867 128.269 37.3561C130.048 35.3256 132.153 33.7693 134.583 32.6873C137.014 31.6053 139.689 31.0644 142.609 31.0644C145.01 31.0644 147.248 31.4275 149.324 32.1537C151.413 32.8652 153.273 33.8805 154.904 35.1996C156.549 36.5039 157.92 38.0675 159.017 39.8906C160.114 41.6988 160.87 43.7072 161.285 45.9156H155.593ZM175.53 31.6869V77.2188H170.283V31.6869H175.53ZM199.013 77.9302C195.93 77.9302 193.225 77.1965 190.898 75.7292C188.586 74.2618 186.778 72.2091 185.473 69.5708C184.184 66.9326 183.539 63.8497 183.539 60.3221C183.539 56.765 184.184 53.6598 185.473 51.0068C186.778 48.3537 188.586 46.2935 190.898 44.8262C193.225 43.3589 195.93 42.6252 199.013 42.6252C202.096 42.6252 204.793 43.3589 207.105 44.8262C209.432 46.2935 211.241 48.3537 212.53 51.0068C213.834 53.6598 214.487 56.765 214.487 60.3221C214.487 63.8497 213.834 66.9326 212.53 69.5708C211.241 72.2091 209.432 74.2618 207.105 75.7292C204.793 77.1965 202.096 77.9302 199.013 77.9302ZM199.013 73.2169C201.355 73.2169 203.281 72.6166 204.793 71.4161C206.305 70.2156 207.424 68.6371 208.15 66.6806C208.877 64.7242 209.24 62.6047 209.24 60.3221C209.24 58.0396 208.877 55.9127 208.15 53.9415C207.424 51.9702 206.305 50.3769 204.793 49.1615C203.281 47.9461 201.355 47.3384 199.013 47.3384C196.671 47.3384 194.744 47.9461 193.232 49.1615C191.721 50.3769 190.602 51.9702 189.875 53.9415C189.149 55.9127 188.786 58.0396 188.786 60.3221C188.786 62.6047 189.149 64.7242 189.875 66.6806C190.602 68.6371 191.721 70.2156 193.232 71.4161C194.744 72.6166 196.671 73.2169 199.013 73.2169ZM192.61 37.3783C191.676 37.3783 190.846 37.0226 190.12 36.3112C189.408 35.5849 189.053 34.7549 189.053 33.8212C189.053 32.7985 189.408 31.9536 190.12 31.2867C190.846 30.6049 191.676 30.264 192.61 30.264C193.633 30.264 194.477 30.6049 195.144 31.2867C195.826 31.9536 196.167 32.7985 196.167 33.8212C196.167 34.7549 195.826 35.5849 195.144 36.3112C194.477 37.0226 193.633 37.3783 192.61 37.3783ZM205.416 37.3783C204.482 37.3783 203.652 37.0226 202.926 36.3112C202.214 35.5849 201.859 34.7549 201.859 33.8212C201.859 32.7985 202.214 31.9536 202.926 31.2867C203.652 30.6049 204.482 30.264 205.416 30.264C206.438 30.264 207.283 30.6049 207.95 31.2867C208.632 31.9536 208.973 32.7985 208.973 33.8212C208.973 34.7549 208.632 35.5849 207.95 36.3112C207.283 37.0226 206.438 37.3783 205.416 37.3783ZM227.387 64.7686L227.298 58.2768H228.365L243.305 43.0698H249.797L233.879 59.1661H233.434L227.387 64.7686ZM222.496 77.2188V31.6869H227.743V77.2188H222.496ZM244.195 77.2188L230.855 60.3221L234.59 56.676L250.864 77.2188H244.195Z" fill="white"/>
</g>
<defs>
<clipPath id="clip0_2867_896">
<rect width="251.746" height="107.773" fill="white" transform="translate(0.208008 0.332031)"/>
</clipPath>
</defs>
</svg>
