<svg width="253" height="109" viewBox="0 0 253 109" fill="none" xmlns="http://www.w3.org/2000/svg">
<g clip-path="url(#clip0_2867_848)">
<path d="M2.43151 26.8573L46.1315 1.62669C47.1572 1.03445 48.4227 1.04144 49.4418 1.64497L67.8492 12.5455C70.0073 13.8235 69.99 16.9526 67.8179 18.2067L8.93847 52.2008C6.75242 53.4629 6.75242 56.6182 8.93847 57.8803L46.1525 79.3658C47.167 79.9515 48.417 79.9515 49.4315 79.3658L65.9126 69.8504C68.0986 68.5883 68.0986 65.433 65.9126 64.1709L55.0169 57.8803C52.8308 56.6182 52.8309 53.4629 55.0169 52.2008L89.8734 32.0764C92.0594 30.8142 94.792 32.3919 94.792 34.9161V79.4121C94.792 80.5836 94.167 81.6661 93.1525 82.2518L49.4315 107.494C48.417 108.08 47.167 108.08 46.1525 107.494L2.43153 82.2518C1.41698 81.6661 0.791992 80.5835 0.791992 79.4121V29.697C0.791992 28.5255 1.41697 27.443 2.43151 26.8573Z" fill="white"/>
<path d="M156.177 46.2515C155.688 44.7545 155.043 43.4132 154.243 42.2275C153.457 41.0269 152.516 40.0042 151.419 39.1594C150.337 38.3146 149.107 37.6698 147.729 37.2252C146.35 36.7805 144.839 36.5582 143.193 36.5582C140.496 36.5582 138.043 37.2548 135.834 38.648C133.626 40.0413 131.87 42.0941 130.565 44.8064C129.261 47.5188 128.609 50.8462 128.609 54.7887C128.609 58.7313 129.268 62.0587 130.588 64.7711C131.907 67.4834 133.693 69.5362 135.946 70.9294C138.198 72.3227 140.733 73.0193 143.549 73.0193C146.158 73.0193 148.455 72.4635 150.441 71.3519C152.442 70.2254 153.998 68.6395 155.11 66.5941C156.236 64.5339 156.8 62.1106 156.8 59.3241L158.489 59.6799H144.794V54.7887H162.135V59.6799C162.135 63.4297 161.335 66.6905 159.734 69.4621C158.148 72.2337 155.955 74.3829 153.153 75.9095C150.367 77.4213 147.166 78.1772 143.549 78.1772C139.518 78.1772 135.975 77.2286 132.922 75.3315C129.884 73.4343 127.512 70.7368 125.808 67.2389C124.118 63.741 123.273 59.5909 123.273 54.7887C123.273 51.1871 123.755 47.9486 124.718 45.0732C125.696 42.183 127.075 39.7226 128.853 37.6921C130.632 35.6615 132.737 34.1052 135.167 33.0233C137.598 31.9413 140.273 31.4003 143.193 31.4003C145.594 31.4003 147.832 31.7634 149.908 32.4897C151.997 33.2011 153.857 34.2164 155.488 35.5355C157.133 36.8398 158.504 38.4035 159.601 40.2265C160.698 42.0348 161.454 44.0431 161.869 46.2515H156.177ZM176.114 32.0228V77.5547H170.867V32.0228H176.114ZM199.597 78.2661C196.514 78.2661 193.809 77.5325 191.482 76.0651C189.17 74.5978 187.362 72.545 186.057 69.9068C184.768 67.2685 184.123 64.1856 184.123 60.6581C184.123 57.1009 184.768 53.9958 186.057 51.3427C187.362 48.6897 189.17 46.6295 191.482 45.1621C193.809 43.6948 196.514 42.9611 199.597 42.9611C202.68 42.9611 205.377 43.6948 207.689 45.1621C210.016 46.6295 211.825 48.6897 213.114 51.3427C214.418 53.9958 215.071 57.1009 215.071 60.6581C215.071 64.1856 214.418 67.2685 213.114 69.9068C211.825 72.545 210.016 74.5978 207.689 76.0651C205.377 77.5325 202.68 78.2661 199.597 78.2661ZM199.597 73.5529C201.939 73.5529 203.865 72.9526 205.377 71.752C206.889 70.5515 208.008 68.973 208.734 67.0165C209.461 65.0601 209.824 62.9406 209.824 60.6581C209.824 58.3756 209.461 56.2487 208.734 54.2774C208.008 52.3061 206.889 50.7128 205.377 49.4974C203.865 48.2821 201.939 47.6744 199.597 47.6744C197.255 47.6744 195.328 48.2821 193.816 49.4974C192.305 50.7128 191.186 52.3061 190.459 54.2774C189.733 56.2487 189.37 58.3756 189.37 60.6581C189.37 62.9406 189.733 65.0601 190.459 67.0165C191.186 68.973 192.305 70.5515 193.816 71.752C195.328 72.9526 197.255 73.5529 199.597 73.5529ZM193.194 37.7143C192.26 37.7143 191.43 37.3586 190.704 36.6471C189.992 35.9209 189.637 35.0909 189.637 34.1571C189.637 33.1344 189.992 32.2896 190.704 31.6226C191.43 30.9408 192.26 30.5999 193.194 30.5999C194.217 30.5999 195.061 30.9408 195.728 31.6226C196.41 32.2896 196.751 33.1344 196.751 34.1571C196.751 35.0909 196.41 35.9209 195.728 36.6471C195.061 37.3586 194.217 37.7143 193.194 37.7143ZM206 37.7143C205.066 37.7143 204.236 37.3586 203.51 36.6471C202.798 35.9209 202.443 35.0909 202.443 34.1571C202.443 33.1344 202.798 32.2896 203.51 31.6226C204.236 30.9408 205.066 30.5999 206 30.5999C207.022 30.5999 207.867 30.9408 208.534 31.6226C209.216 32.2896 209.557 33.1344 209.557 34.1571C209.557 35.0909 209.216 35.9209 208.534 36.6471C207.867 37.3586 207.022 37.7143 206 37.7143ZM227.971 65.1046L227.882 58.6127H228.949L243.889 43.4058H250.381L234.463 59.502H234.018L227.971 65.1046ZM223.08 77.5547V32.0228H228.327V77.5547H223.08ZM244.779 77.5547L231.439 60.6581L235.174 57.012L251.448 77.5547H244.779Z" fill="white"/>
</g>
<g clip-path="url(#clip1_2867_848)">
<path d="M2.63952 27.1893L46.3395 1.95872C47.3652 1.36648 48.6307 1.37347 49.6498 1.977L68.0572 12.8775C70.2153 14.1555 70.1981 17.2847 68.0259 18.5387L9.14648 52.5328C6.96043 53.7949 6.96043 56.9502 9.14648 58.2123L46.3605 79.6978C47.375 80.2836 48.625 80.2836 49.6395 79.6978L66.1206 70.1825C68.3067 68.9203 68.3067 65.7651 66.1206 64.5029L55.2249 58.2123C53.0389 56.9502 53.0389 53.7949 55.2249 52.5328L90.0814 32.4084C92.2674 31.1463 95 32.7239 95 35.2481V79.7441C95 80.9156 94.375 81.9981 93.3605 82.5838L49.6395 107.826C48.625 108.412 47.375 108.412 46.3605 107.826L2.63953 82.5838C1.62499 81.9981 1 80.9156 1 79.7441V30.029C1 28.8575 1.62498 27.775 2.63952 27.1893Z" fill="white"/>
<path d="M156.385 46.5835C155.896 45.0866 155.251 43.7452 154.451 42.5595C153.665 41.3589 152.724 40.3362 151.627 39.4914C150.545 38.6466 149.315 38.0018 147.937 37.5572C146.558 37.1126 145.047 36.8902 143.401 36.8902C140.704 36.8902 138.251 37.5868 136.042 38.9801C133.834 40.3733 132.078 42.4261 130.773 45.1384C129.469 47.8508 128.817 51.1782 128.817 55.1208C128.817 59.0633 129.476 62.3908 130.796 65.1031C132.115 67.8155 133.901 69.8682 136.154 71.2615C138.406 72.6547 140.941 73.3513 143.757 73.3513C146.366 73.3513 148.663 72.7955 150.649 71.6839C152.65 70.5574 154.206 68.9715 155.318 66.9262C156.444 64.866 157.008 62.4426 157.008 59.6562L158.697 60.0119H145.002V55.1208H162.343V60.0119C162.343 63.7618 161.543 67.0225 159.942 69.7941C158.356 72.5658 156.163 74.7149 153.361 76.2415C150.575 77.7533 147.374 78.5092 143.757 78.5092C139.726 78.5092 136.183 77.5606 133.13 75.6635C130.092 73.7663 127.72 71.0688 126.016 67.5709C124.326 64.073 123.481 59.923 123.481 55.1208C123.481 51.5191 123.963 48.2806 124.926 45.4052C125.904 42.515 127.283 40.0546 129.061 38.0241C130.84 35.9935 132.945 34.4373 135.375 33.3553C137.806 32.2733 140.481 31.7323 143.401 31.7323C145.802 31.7323 148.04 32.0954 150.116 32.8217C152.205 33.5331 154.065 34.5484 155.696 35.8675C157.341 37.1718 158.712 38.7355 159.809 40.5586C160.906 42.3668 161.662 44.3751 162.077 46.5835H156.385ZM176.322 32.3548V77.8867H171.075V32.3548H176.322ZM199.805 78.5982C196.722 78.5982 194.017 77.8645 191.69 76.3971C189.378 74.9298 187.57 72.877 186.265 70.2388C184.976 67.6005 184.331 64.5177 184.331 60.9901C184.331 57.4329 184.976 54.3278 186.265 51.6748C187.57 49.0217 189.378 46.9615 191.69 45.4942C194.017 44.0268 196.722 43.2932 199.805 43.2932C202.888 43.2932 205.585 44.0268 207.897 45.4942C210.224 46.9615 212.033 49.0217 213.322 51.6748C214.626 54.3278 215.279 57.4329 215.279 60.9901C215.279 64.5177 214.626 67.6005 213.322 70.2388C212.033 72.877 210.224 74.9298 207.897 76.3971C205.585 77.8645 202.888 78.5982 199.805 78.5982ZM199.805 73.8849C202.147 73.8849 204.073 73.2846 205.585 72.0841C207.097 70.8835 208.216 69.305 208.942 67.3486C209.669 65.3921 210.032 63.2726 210.032 60.9901C210.032 58.7076 209.669 56.5807 208.942 54.6094C208.216 52.6382 207.097 51.0448 205.585 49.8295C204.073 48.6141 202.147 48.0064 199.805 48.0064C197.463 48.0064 195.536 48.6141 194.024 49.8295C192.513 51.0448 191.394 52.6382 190.667 54.6094C189.941 56.5807 189.578 58.7076 189.578 60.9901C189.578 63.2726 189.941 65.3921 190.667 67.3486C191.394 69.305 192.513 70.8835 194.024 72.0841C195.536 73.2846 197.463 73.8849 199.805 73.8849ZM193.402 38.0463C192.468 38.0463 191.638 37.6906 190.912 36.9792C190.2 36.2529 189.845 35.4229 189.845 34.4891C189.845 33.4664 190.2 32.6216 190.912 31.9546C191.638 31.2729 192.468 30.932 193.402 30.932C194.425 30.932 195.269 31.2729 195.936 31.9546C196.618 32.6216 196.959 33.4664 196.959 34.4891C196.959 35.4229 196.618 36.2529 195.936 36.9792C195.269 37.6906 194.425 38.0463 193.402 38.0463ZM206.208 38.0463C205.274 38.0463 204.444 37.6906 203.718 36.9792C203.006 36.2529 202.651 35.4229 202.651 34.4891C202.651 33.4664 203.006 32.6216 203.718 31.9546C204.444 31.2729 205.274 30.932 206.208 30.932C207.23 30.932 208.075 31.2729 208.742 31.9546C209.424 32.6216 209.765 33.4664 209.765 34.4891C209.765 35.4229 209.424 36.2529 208.742 36.9792C208.075 37.6906 207.23 38.0463 206.208 38.0463ZM228.179 65.4366L228.09 58.9447H229.157L244.097 43.7378H250.589L234.671 59.834H234.226L228.179 65.4366ZM223.288 77.8867V32.3548H228.535V77.8867H223.288ZM244.987 77.8867L231.647 60.9901L235.382 57.344L251.656 77.8867H244.987Z" fill="white"/>
</g>
<defs>
<clipPath id="clip0_2867_848">
<rect width="251.746" height="107.773" fill="white" transform="translate(0.791992 0.667969)"/>
</clipPath>
<clipPath id="clip1_2867_848">
<rect width="251.746" height="107.773" fill="white" transform="translate(1 1)"/>
</clipPath>
</defs>
</svg>
