<svg width="110" height="110" viewBox="0 0 110 110" fill="none" xmlns="http://www.w3.org/2000/svg">
<path d="M98.6267 46.2162L59.3189 75.5185C51.9687 80.9977 53.6014 83.3801 53.6014 86.0006C56.2695 96.2921 62.1776 100.93 64.7981 101.962H92.1945C99.4367 100.818 102.677 93.7034 103.391 90.2888V50.7426C103.582 43.5004 100.294 44.7075 98.6267 46.2162Z" fill="#94C294"/>
<path d="M100.056 35.9725L59.3189 66.2276C55.4695 69.0865 55.8091 65.6717 56.4601 63.6069C63.2099 48.1221 77.0431 16.3424 78.3772 13.1024C81.7124 5.95557 87.6682 7.14671 90.2887 7.14671C99.3414 7.14671 101.724 15.4847 102.438 17.1523C104.344 31.6367 101.644 35.7342 100.056 35.9725Z" fill="#94C294"/>
<path d="M50.7426 98.1502L19.5346 35.9725C18.865 34.6385 17.3497 34.146 16.6758 34.0665H10.2436C6.81305 33.8759 6.74957 37.4811 7.14665 39.3075C7.06724 50.2661 6.95606 74.9467 7.14665 86.0006C6.38431 96.6734 15.0876 101.089 19.5346 101.962H48.3603C52.172 101.962 51.5367 99.4208 50.7426 98.1502Z" fill="#94C294"/>
<path d="M71.2303 10.4818L47.4073 66.2276C45.8599 69.8487 43.1097 66.7835 41.9281 64.7982C37.6399 56.3013 28.7778 38.6405 27.6343 35.9725C26.1096 29.3021 22.0756 27.158 20.2492 26.9197H11.1965C9.29064 27.6821 7.70249 26.6021 7.14665 25.9668V20.2493C9.05254 10.5296 16.1994 7.78199 19.5346 7.62317C34.2254 7.62312 64.6075 7.62304 68.6097 7.62317C72.1656 6.67038 71.8384 9.1319 71.2303 10.4818Z" fill="#94C294"/>
</svg>
